<?xml version="1.0" encoding="UTF-8"?>
<svg width="1440px" height="502px" viewBox="0 0 1440 502" version="1.1" xmlns="http://www.w3.org/2000/svg">
    <title>Min Variance Portfolio RA and Risk-Free Schematics</title>
    <rect x="0" y="0" width="1440" height="502" fill="#FFFFFF"></rect>

    <g transform="translate(0 0)" stroke="none" fill="none">
        <rect fill="#FFFAF0" fill-rule="evenodd" x="108" y="0" width="596" height="445"></rect>
        <line x1="437" y1="26" x2="439.5" y2="445.5" stroke="#FF0000" stroke-width="2" stroke-linecap="square" stroke-dasharray="0,5"></line>
        <path d="M106.5,2.44040671 L107.807363,4.76460814 L116.807363,20.7646081 L117.542755,22.0719714 L114.928029,23.5427552 L114.192637,22.2353919 L108,11.226 L108,477 L105,477 L105,11.226 L98.8073633,22.2353919 L98.0719714,23.5427552 L95.4572448,22.0719714 L96.1926367,20.7646081 L105.192637,4.76460814 L106.5,2.44040671 Z" fill="#000000" fill-rule="nonzero"></path>
        <path d="M684.944803,435.433628 L686.251049,436.171003 L702.237374,445.195272 L704.559589,446.50616 L702.233406,447.809995 L686.219767,456.785706 L684.91129,457.519113 L683.444475,454.902157 L684.752953,454.16875 L695.771,447.992 L685.50072,447.977241 L41.4977238,446.999998 L39.9977256,446.997722 L40.0022779,443.997726 L41.5022762,444.000002 L685.505272,444.977245 L695.776,444.992 L684.776299,438.783495 L683.470054,438.04612 L684.944803,435.433628 Z" fill="#000000" fill-rule="nonzero"></path>
        <text font-family="Helvetica" font-size="24" font-weight="normal" fill="#000000">
            <tspan x="517.646484" y="481">Risk measure</tspan>
        </text>
        <text transform="translate(15, 235.5) rotate(-90) translate(-15, -235.5)" font-family="Helvetica" font-size="24" font-weight="normal" fill="#000000">
            <tspan x="-75.046875" y="244">Expected reward</tspan>
        </text>
        <path d="M501.5,49.5 C359.5,142.166667 288.5,210.916667 288.5,255.75 C288.5,300.583333 367.75,352.166667 526.25,410.5" stroke="#0B0B0B" stroke-width="2" stroke-linecap="square" stroke-dasharray="5"></path>
        <path d="M501.5,49.5 C359.5,142.166667 288.5,210.916667 288.5,255.75" stroke="#FF0000" stroke-width="3" stroke-linecap="square"></path>
        <circle stroke="#0068AC" stroke-width="1" fill="#0068AC" fill-rule="evenodd" cx="288" cy="256" r="6.5"></circle>
        <circle stroke="#FF0000" stroke-width="1" fill="#FF0000" fill-rule="evenodd" cx="438" cy="93" r="6.5"></circle>
        <circle stroke="#FF0000" stroke-width="2" fill="#FFFFFF" fill-rule="evenodd" cx="439" cy="376" r="6"></circle>
        <line x1="287.5" y1="263.5" x2="287.5" y2="446.5" stroke="#0068AC" stroke-width="2" stroke-linecap="square" stroke-dasharray="0,5"></line>
        <line x1="286.5" y1="255.5" x2="106.5" y2="255.5" stroke="#0068AC" stroke-width="2" fill="#0068AC" fill-rule="evenodd" stroke-linecap="square" stroke-dasharray="0,5"></line>
        <line x1="429.5" y1="92.5" x2="107" y2="93" stroke="#FF0000" stroke-width="2" fill="#FF0000" fill-rule="evenodd" stroke-linecap="square" stroke-dasharray="0,5"></line>
        <line x1="428.5" y1="375.5" x2="106" y2="376" stroke="#FF0000" stroke-width="2" fill="#FF0000" fill-rule="evenodd" stroke-linecap="square" stroke-dasharray="0,5"></line>
        <text font-family="Helvetica" font-size="18" font-weight="normal" fill="#0068AC">
            <tspan x="134.958984" y="225">min-var portfolio </tspan>
        </text>
        <text font-family="Helvetica" font-size="20" font-weight="normal" fill="#FF0000">
            <tspan x="531.197266" y="33">Efficient Frontier   </tspan>
        </text>
        <rect stroke="#0068AC" stroke-width="1" fill="#0068AC" fill-rule="evenodd" x="282.5" y="440.5" width="11" height="11"></rect>
        <rect stroke="#FF0000" stroke-width="1" fill="#FF0000" fill-rule="evenodd" x="434.5" y="440.5" width="11" height="11"></rect>
        <rect stroke="#FF0000" stroke-width="1" fill="#FF0000" fill-rule="evenodd" x="100.5" y="86.5" width="11" height="11"></rect>
        <rect stroke="#0068AC" stroke-width="1" fill="#0068AC" fill-rule="evenodd" x="100.5" y="249.5" width="11" height="11"></rect>
        <rect stroke="#FF0000" stroke-width="1" fill="#FFFFFF" fill-rule="evenodd" x="101.5" y="370.5" width="11" height="11"></rect>
        <line x1="509.951965" y1="45.4017513" x2="525.048035" y2="35.5982487" stroke="#FF0303" stroke-width="1" stroke-linecap="square"></line>
        <text font-family="Helvetica" font-size="20" font-weight="normal" fill="#FF0000">
            <tspan x="419.438477" y="80">1</tspan>
        </text>
        <text font-family="Helvetica" font-size="20" font-weight="normal" fill="#0068AC">
            <tspan x="305.938477" y="264">2</tspan>
        </text>
        <text font-family="Helvetica" font-size="20" font-weight="normal" fill="#FF0000">
            <tspan x="419.438477" y="400">3</tspan>
        </text>
        <text font-family="Helvetica" font-size="20" font-weight="normal" fill="#FF0000">
            <tspan x="429.330078" y="477">σ</tspan>
            <tspan x="441.546875" y="477">1</tspan>
        </text>
        <text font-family="Helvetica" font-size="20" font-weight="normal" fill="#0068AC">
            <tspan x="277.330078" y="477">σ</tspan>
            <tspan x="289.546875" y="477">2</tspan>
        </text>
        <text font-family="Helvetica" font-size="20" font-weight="normal" fill="#0068AC">
            <tspan x="37.8867188" y="260">E[g</tspan>
            <tspan x="72.3300781" y="260">2</tspan>
            <tspan x="83.453125" y="260">]</tspan>
        </text>
        <text font-family="Helvetica" font-size="20" font-weight="normal" fill="#FF0000">
            <tspan x="37.8867188" y="382">E[g</tspan>
            <tspan x="72.3300781" y="382">3</tspan>
            <tspan x="83.453125" y="382">]</tspan>
        </text>
        <text font-family="Helvetica" font-size="20" font-weight="normal" fill="#FF0000">
            <tspan x="37.8867188" y="96">E[g</tspan>
            <tspan x="72.3300781" y="96">1</tspan>
            <tspan x="83.453125" y="96">]</tspan>
        </text>
        <line x1="277.5" y1="241.5" x2="264.5" y2="230.5" stroke="#0068AC" stroke-width="1" stroke-linecap="square"></line>
    </g>

    <g transform="translate(736 0)" stroke="none" fill="none">
        <rect fill="#FFFFFF" fill-rule="evenodd" x="0" y="0" width="704" height="499"></rect>
        <line x1="398" y1="32" x2="400.5" y2="451.5" stroke="#FF0000" stroke-width="2" stroke-linecap="square" stroke-dasharray="0,5"></line>
        <rect fill="#FFFAF0" fill-rule="evenodd" x="111" y="2" width="593" height="445"></rect>
        <line x1="555" y1="3" x2="112.563896" y2="349.583356" stroke="#89CCE2" stroke-width="4" stroke-linecap="square"></line>
        <path d="M111.5,2.44040671 L112.807363,4.76460814 L121.807363,20.7646081 L122.542755,22.0719714 L119.928029,23.5427552 L119.192637,22.2353919 L113,11.226 L113,477 L110,477 L110,11.226 L103.807363,22.2353919 L103.071971,23.5427552 L100.457245,22.0719714 L101.192637,20.7646081 L110.192637,4.76460814 L111.5,2.44040671 Z" fill="#000000" fill-rule="nonzero"></path>
        <path d="M684.928029,434.457245 L686.235392,435.192637 L702.235392,444.192637 L704.559593,445.5 L702.235392,446.807363 L686.235392,455.807363 L684.928029,456.542755 L683.457245,453.928029 L684.764608,453.192637 L695.772,447 L45,447 L45,444 L695.775,444 L684.764608,437.807363 L683.457245,437.071971 L684.928029,434.457245 Z" fill="#000000" fill-rule="nonzero"></path>
        <text font-family="Helvetica" font-size="24" font-weight="normal" fill="#000000">
            <tspan x="531.646484" y="481">Risk measure</tspan>
        </text>
        <text transform="translate(19, 248.5) rotate(-90) translate(-19, -248.5)" font-family="Helvetica" font-size="24" font-weight="normal" fill="#000000">
            <tspan x="-71.046875" y="257">Expected reward</tspan>
        </text>
        <path d="M506.5,49.5 C364.5,142.166667 293.5,210.916667 293.5,255.75 C293.5,300.583333 372.75,352.166667 531.25,410.5" stroke="#0B0B0B" stroke-width="2" stroke-linecap="square" stroke-dasharray="5"></path>
        <path d="M506.5,49.5 C364.5,142.166667 293.5,210.916667 293.5,255.75" stroke="#FF0000" stroke-width="3" stroke-linecap="square"></path>
        <circle stroke="#0068AC" stroke-width="1" fill="#0068AC" fill-rule="evenodd" cx="293" cy="256" r="6.5"></circle>
        <circle stroke="#FF0000" stroke-width="1" fill="#FF0000" fill-rule="evenodd" cx="398" cy="127" r="6.5"></circle>
        <line x1="292.5" y1="263.5" x2="292.5" y2="446.5" stroke="#0068AC" stroke-width="2" stroke-linecap="square" stroke-dasharray="0,5"></line>
        <line x1="291.5" y1="255.5" x2="111.5" y2="255.5" stroke="#0068AC" stroke-width="2" fill="#0068AC" fill-rule="evenodd" stroke-linecap="square" stroke-dasharray="0,5"></line>
        <line x1="398" y1="127" x2="114" y2="127" stroke="#FF0000" stroke-width="2" fill="#FF0000" fill-rule="evenodd" stroke-linecap="square" stroke-dasharray="0,5"></line>
        <line x1="398" y1="135" x2="398" y2="446" stroke="#FF0000" stroke-width="2" fill="#FF0000" fill-rule="evenodd" stroke-linecap="square" stroke-dasharray="0,5"></line>
        <text font-family="Helvetica" font-size="18" font-weight="normal" fill="#0068AC">
            <tspan x="448" y="262">min-var portfolio </tspan>
        </text>
        <text font-family="Helvetica" font-size="18" font-weight="normal" fill="#FF0000">
            <tspan x="514.477539" y="111">Efficient Frontier   </tspan>
        </text>
        <text font-family="Helvetica" font-size="18" font-weight="normal" fill="#FF0000">
            <tspan x="445.453613" y="167">Tangent portfolio   </tspan>
        </text>
        <text font-family="Helvetica" font-size="18" font-weight="normal">
            <tspan x="208.43457" y="47" fill="#2F9FC4">Capital Allocation Line (CAL)</tspan>
            <tspan x="437.56543" y="47" font-size="20" fill="#89CCE2">   </tspan>
        </text>
        <rect stroke="#0068AC" stroke-width="1" fill="#0068AC" fill-rule="evenodd" x="287.5" y="440.5" width="11" height="11"></rect>
        <rect stroke="#FF0000" stroke-width="1" fill="#FF0000" fill-rule="evenodd" x="392.5" y="439.5" width="11" height="11"></rect>
        <rect stroke="#FF0000" stroke-width="1" fill="#FF0000" fill-rule="evenodd" x="105.5" y="122.5" width="11" height="11"></rect>
        <rect stroke="#0068AC" stroke-width="1" fill="#0068AC" fill-rule="evenodd" x="105.5" y="249.5" width="11" height="11"></rect>
        <rect stroke="#89CCE2" stroke-width="1" fill="#FFFFFF" fill-rule="evenodd" x="105.5" y="344.5" width="11" height="11"></rect>
        <line x1="482.951965" y1="78.4017513" x2="506.5" y2="92.5" stroke="#FF0303" stroke-width="1" stroke-linecap="square"></line>
        <line x1="412.951965" y1="134.401751" x2="436.5" y2="148.5" stroke="#FF0303" stroke-width="1" stroke-linecap="square"></line>
        <line x1="308.951965" y1="255.401751" x2="440.5" y2="255.5" stroke="#0068AC" stroke-width="1" stroke-linecap="square"></line>
        <line x1="440.951965" y1="49.4017513" x2="464.5" y2="63.5" stroke="#89CCE2" stroke-width="1" stroke-linecap="square"></line>
        <text font-family="Helvetica" font-size="20" font-weight="normal" fill="#FF0000">
            <tspan x="392.438477" y="109">T</tspan>
        </text>
        <text font-family="Helvetica" font-size="20" font-weight="normal" fill="#0068AC">
            <tspan x="268.938477" y="280">2</tspan>
        </text>
        <text font-family="Helvetica" font-size="20" font-weight="normal" fill="#FF0000">
            <tspan x="386.330078" y="477">σ</tspan>
            <tspan x="398.546875" y="477">1</tspan>
        </text>
        <text font-family="Helvetica" font-size="20" font-weight="normal" fill="#0068AC">
            <tspan x="282.330078" y="477">σ</tspan>
            <tspan x="294.546875" y="477">2</tspan>
        </text>
        <text font-family="Helvetica" font-size="20" font-weight="normal" fill="#0068AC">
            <tspan x="42.8867188" y="260">E[g</tspan>
            <tspan x="77.3300781" y="260">2</tspan>
            <tspan x="88.453125" y="260">]</tspan>
        </text>
        <text font-family="Helvetica" font-size="20" font-weight="normal" fill="#2F9FC4">
            <tspan x="76" y="358">g</tspan>
            <tspan x="90.4433594" y="358">f</tspan>
        </text>
        <text font-family="Helvetica" font-size="20" font-weight="normal" fill="#FF0000">
            <tspan x="42.8867188" y="130">E[g</tspan>
            <tspan x="77.3300781" y="130">1</tspan>
            <tspan x="88.453125" y="130">]</tspan>
        </text>
        <text font-family="Helvetica" font-size="18" font-weight="normal" font-style="italic" fill="#2F9FC4">
            <tspan x="333" y="125">slope = SR(T)</tspan>
        </text>
    </g>
</svg>
