<?xml version="1.0" encoding="UTF-8"?>
<svg width="704px" height="499px" viewBox="0 0 704 499" version="1.1" xmlns="http://www.w3.org/2000/svg" xmlns:xlink="http://www.w3.org/1999/xlink">
    <title>Artboard</title>
    <defs>
        <path d="M0,0 L704,0 L704,499 L0,499 L0,0 Z" id="path-1"></path>
    </defs>
    <g id="Artboard" stroke="none" fill="none" xlink:href="#path-1">
        <use fill="#FFFFFF" fill-rule="evenodd" xlink:href="#path-1"></use>
        <line x1="398" y1="32" x2="400.5" y2="451.5" id="Line-3" stroke="#FF0000" stroke-width="2" stroke-linecap="square" stroke-dasharray="0,5"></line>
        <rect id="Rectangle" fill="#FFFAF0" fill-rule="evenodd" x="111" y="2" width="593" height="445"></rect>
        <line x1="555" y1="3" x2="112.563896" y2="349.583356" id="Line-5" stroke="#89CCE2" stroke-width="4" stroke-linecap="square"></line>
        <path id="Line" d="M111.5,2.44040671 L112.807363,4.76460814 L121.807363,20.7646081 L122.542755,22.0719714 L119.928029,23.5427552 L119.192637,22.2353919 L113,11.226 L113,477 L110,477 L110,11.226 L103.807363,22.2353919 L103.071971,23.5427552 L100.457245,22.0719714 L101.192637,20.7646081 L110.192637,4.76460814 L111.5,2.44040671 Z" fill="#000000" fill-rule="nonzero"></path>
        <path id="Line" d="M684.928029,434.457245 L686.235392,435.192637 L702.235392,444.192637 L704.559593,445.5 L702.235392,446.807363 L686.235392,455.807363 L684.928029,456.542755 L683.457245,453.928029 L684.764608,453.192637 L695.772,447 L45,447 L45,444 L695.775,444 L684.764608,437.807363 L683.457245,437.071971 L684.928029,434.457245 Z" fill="#000000" fill-rule="nonzero"></path>
        <text id="Risk-measure" font-family="Helvetica" font-size="24" font-weight="normal" fill="#000000">
            <tspan x="531.646484" y="481">Risk measure</tspan>
        </text>
        <text id="Expected-reward" transform="translate(19, 248.5) rotate(-90) translate(-19, -248.5)" font-family="Helvetica" font-size="24" font-weight="normal" fill="#000000">
            <tspan x="-71.046875" y="257">Expected reward</tspan>
        </text>
        <path d="M506.5,49.5 C364.5,142.166667 293.5,210.916667 293.5,255.75 C293.5,300.583333 372.75,352.166667 531.25,410.5" id="Line-2" stroke="#0B0B0B" stroke-width="2" stroke-linecap="square" stroke-dasharray="5"></path>
        <path d="M506.5,49.5 C364.5,142.166667 293.5,210.916667 293.5,255.75" id="Path" stroke="#FF0000" stroke-width="3" stroke-linecap="square"></path>
        <circle id="Oval" stroke="#0068AC" stroke-width="1" fill="#0068AC" fill-rule="evenodd" cx="293" cy="256" r="6.5"></circle>
        <circle id="Oval" stroke="#FF0000" stroke-width="1" fill="#FF0000" fill-rule="evenodd" cx="398" cy="127" r="6.5"></circle>
        <line x1="292.5" y1="263.5" x2="292.5" y2="446.5" id="Line-3" stroke="#0068AC" stroke-width="2" stroke-linecap="square" stroke-dasharray="0,5"></line>
        <line x1="291.5" y1="255.5" x2="111.5" y2="255.5" id="Line-3" stroke="#0068AC" stroke-width="2" fill="#0068AC" fill-rule="evenodd" stroke-linecap="square" stroke-dasharray="0,5"></line>
        <line x1="398" y1="127" x2="114" y2="127" id="Line-3" stroke="#FF0000" stroke-width="2" fill="#FF0000" fill-rule="evenodd" stroke-linecap="square" stroke-dasharray="0,5"></line>
        <line x1="398" y1="135" x2="398" y2="446" id="Line-3" stroke="#FF0000" stroke-width="2" fill="#FF0000" fill-rule="evenodd" stroke-linecap="square" stroke-dasharray="0,5"></line>
        <text id="min-var-portfolio" font-family="Helvetica" font-size="18" font-weight="normal" fill="#0068AC">
            <tspan x="448" y="262">min-var portfolio </tspan>
        </text>
        <text id="Efficient-Frontier" font-family="Helvetica" font-size="18" font-weight="normal" fill="#FF0000">
            <tspan x="514.477539" y="111">Efficient Frontier   </tspan>
        </text>
        <text id="Tangent-portfolio" font-family="Helvetica" font-size="18" font-weight="normal" fill="#FF0000">
            <tspan x="445.453613" y="167">Tangent portfolio   </tspan>
        </text>
        <text id="Capital-Allocation-L" font-family="Helvetica" font-size="18" font-weight="normal">
            <tspan x="208.43457" y="47" fill="#2F9FC4">Capital Allocation Line (CAL)</tspan>
            <tspan x="437.56543" y="47" font-size="20" fill="#89CCE2">   </tspan>
        </text>
        <rect id="Rectangle" stroke="#0068AC" stroke-width="1" fill="#0068AC" fill-rule="evenodd" x="287.5" y="440.5" width="11" height="11"></rect>
        <rect id="Rectangle" stroke="#FF0000" stroke-width="1" fill="#FF0000" fill-rule="evenodd" x="392.5" y="439.5" width="11" height="11"></rect>
        <rect id="Rectangle" stroke="#FF0000" stroke-width="1" fill="#FF0000" fill-rule="evenodd" x="105.5" y="122.5" width="11" height="11"></rect>
        <rect id="Rectangle" stroke="#0068AC" stroke-width="1" fill="#0068AC" fill-rule="evenodd" x="105.5" y="249.5" width="11" height="11"></rect>
        <rect id="Rectangle" stroke="#89CCE2" stroke-width="1" fill="#FFFFFF" fill-rule="evenodd" x="105.5" y="344.5" width="11" height="11"></rect>
        <line x1="482.951965" y1="78.4017513" x2="506.5" y2="92.5" id="Line-4" stroke="#FF0303" stroke-width="1" stroke-linecap="square"></line>
        <line x1="412.951965" y1="134.401751" x2="436.5" y2="148.5" id="Line-4" stroke="#FF0303" stroke-width="1" stroke-linecap="square"></line>
        <line x1="308.951965" y1="255.401751" x2="440.5" y2="255.5" id="Line-4" stroke="#0068AC" stroke-width="1" stroke-linecap="square"></line>
        <line x1="440.951965" y1="49.4017513" x2="464.5" y2="63.5" id="Line-4" stroke="#89CCE2" stroke-width="1" stroke-linecap="square"></line>
        <text id="1" font-family="Helvetica" font-size="20" font-weight="normal" fill="#FF0000">
            <tspan x="392.438477" y="109">1</tspan>
        </text>
        <text id="2" font-family="Helvetica" font-size="20" font-weight="normal" fill="#0068AC">
            <tspan x="268.938477" y="280">2</tspan>
        </text>
        <text id="σ1" font-family="Helvetica" font-size="20" font-weight="normal" fill="#FF0000">
            <tspan x="386.330078" y="477">σ</tspan>
            <tspan x="398.546875" y="477">1</tspan>
        </text>
        <text id="σ2" font-family="Helvetica" font-size="20" font-weight="normal" fill="#0068AC">
            <tspan x="282.330078" y="477">σ</tspan>
            <tspan x="294.546875" y="477">2</tspan>
        </text>
        <text id="E(R2)" font-family="Helvetica" font-size="20" font-weight="normal" fill="#0068AC">
            <tspan x="42.8867188" y="260">E(R</tspan>
            <tspan x="77.3300781" y="260">2</tspan>
            <tspan x="88.453125" y="260">)</tspan>
        </text>
        <text id="Rf" font-family="Helvetica" font-size="20" font-weight="normal" fill="#2F9FC4">
            <tspan x="76" y="358">R</tspan>
            <tspan x="90.4433594" y="358">f</tspan>
        </text>
        <text id="E(R1)" font-family="Helvetica" font-size="20" font-weight="normal" fill="#FF0000">
            <tspan x="42.8867188" y="130">E(R</tspan>
            <tspan x="77.3300781" y="130">1</tspan>
            <tspan x="88.453125" y="130">)</tspan>
        </text>
    </g>
</svg>